<svg width="414" height="564" viewBox="0 0 414 564" fill="none" xmlns="http://www.w3.org/2000/svg">
<path fill-rule="evenodd" clip-rule="evenodd" d="M158.111 79.6724C201.986 43.3869 248.753 8.57117 302.899 -2.35271C362.295 -14.3356 434.94 -22.7955 470.902 16.5676C507.223 56.3228 460.301 127.787 471.114 181.769C480.938 230.817 550.185 262.121 530.228 312.744C510.358 363.146 434.47 366.564 386.233 397.072C342.891 424.486 310.693 482.42 262.454 482.107C213.833 481.792 203.759 419.602 165.769 395.643C126.594 370.936 60.1691 381.424 38.9464 341.147C17.3485 300.157 39.8034 244.657 61.327 197.429C82.2365 151.548 117.511 113.249 158.111 79.6724Z" fill="#649AFC"/>
</svg>
