<svg width="684" height="656" viewBox="0 0 684 656" fill="none" xmlns="http://www.w3.org/2000/svg">
<path fill-rule="evenodd" clip-rule="evenodd" d="M204.111 171.672C247.986 135.387 294.753 100.571 348.899 89.6472C408.295 77.6643 480.94 69.2044 516.902 108.568C553.223 148.323 506.301 219.787 517.114 273.769C526.938 322.817 596.185 354.121 576.228 404.744C556.358 455.146 480.47 458.563 432.233 489.072C388.891 516.486 356.693 574.42 308.454 574.107C259.833 573.792 249.759 511.602 211.769 487.642C172.594 462.936 106.169 473.424 84.9464 433.147C63.3485 392.157 85.8034 336.657 107.327 289.429C128.237 243.548 163.511 205.249 204.111 171.672Z" fill="#649AFC"/>
<path d="M392.957 294.068C367.685 271 313.771 271 295.238 295.99C291.868 307.524 288.327 310.759 280.075 315.213C279.066 317.141 278.321 318.99 277.694 320.98C276.692 324.165 275.995 327.711 275.02 332.514C275.02 332.514 275.02 338.372 275.02 342.126C283.444 411.33 398.011 413.252 413.175 344.048V332.514C413.185 328.208 413.09 324.953 412.496 322.475C411.478 318.23 408.995 316.267 403.066 315.213C397.995 309.988 394.732 303.977 392.957 294.068Z" fill="#FFF1E8"/>
<path d="M275.02 342.126V332.514C275.995 327.711 276.692 324.165 277.694 320.98C273.61 319.042 269.495 320.361 266.662 323.113C261.068 328.549 260.48 339.574 275.02 342.126Z" fill="#FFF1E8"/>
<path d="M413.175 332.514V344.048C426.343 341.043 428.19 325.122 420.325 321.981C418.331 321.184 415.712 321.209 412.496 322.475C413.09 324.953 413.185 328.208 413.175 332.514Z" fill="#FFF1E8"/>
<ellipse cx="321.866" cy="328.746" rx="15.5407" ry="16.9262" fill="white"/>
<ellipse cx="366.134" cy="328.746" rx="15.5407" ry="16.9262" fill="white"/>
<path d="M337.407 330.197C342.313 326.369 345.167 326.287 350.593 330.197" stroke="#1B3882" stroke-width="0.5" stroke-linecap="round"/>
<path d="M377.979 359.489C364.602 373.307 324.472 373.307 311.096 359.489C307.274 355.542 314.945 348.236 324.472 345.672H364.602C374.635 345.672 381.323 356.035 377.979 359.489Z" fill="#D2D2D2"/>
<path d="M402.866 315.689C397.134 308.507 393.25 303.389 392.506 293.926C398.173 287.043 402.909 284.841 409.459 288.123C413.921 290.359 419.364 300.535 420.291 306.425C420.997 310.914 421.57 316.62 421.233 322.459C417.936 321.492 417.465 320.525 412.285 322.459C409.459 317.139 408.047 316.656 402.866 315.689Z" fill="#D2D2D2"/>
<path d="M287.216 313.03C292.479 305.124 297.727 301.955 297.378 292.475C290.482 286.436 283.435 282.466 276.825 286.622C272.322 289.453 267.731 300.287 267.453 306.252C267.241 310.798 267.318 316.531 268.387 322.272C271.796 320.859 272.183 319.835 277.959 321.038C280.338 315.377 281.791 314.703 287.216 313.03Z" fill="#D2D2D2"/>
<path d="M327.8 306.546C339.959 298.665 346.936 299.03 359.577 306.546M333.408 297.942C340.178 294.908 343.806 294.31 349.608 297.942" stroke="#F2D7CE" stroke-linecap="round" stroke-linejoin="round"/>
<path d="M366.431 298.51C365.808 299.74 365.702 301.673 363.938 301.583C362.562 301.583 361.446 300.208 361.446 298.51C361.446 296.813 362.562 295.438 363.938 295.438C365.315 295.438 367.054 297.281 366.431 298.51Z" fill="#F2D7CE"/>
<path d="M316.585 330.622C318.454 326.32 323.439 326.32 325.308 330.622" stroke="black" stroke-linecap="round"/>
<path d="M361.446 330.622C363.315 326.32 368.3 326.32 370.169 330.622" stroke="black" stroke-linecap="round"/>
</svg>
