<svg width="95" height="34" viewBox="0 0 95 34" fill="none" xmlns="http://www.w3.org/2000/svg">
<path d="M25.8141 16.1548H28.5339V27.2386H25.8141V16.1548ZM27.1497 14.0781C26.6479 14.0781 26.2269 13.9091 25.8869 13.571C25.5469 13.2329 25.377 12.8144 25.377 12.3153C25.377 11.8646 25.5469 11.4782 25.8869 11.1562C26.2269 10.8343 26.6479 10.6733 27.1497 10.6733C27.6354 10.6733 28.0482 10.8343 28.3882 11.1562C28.7282 11.4782 28.8982 11.8646 28.8982 12.3153C28.8982 12.8144 28.7282 13.2329 28.3882 13.571C28.0643 13.9091 27.6515 14.0781 27.1497 14.0781ZM37.0948 27.4801C36.0912 27.4801 35.1602 27.2467 34.3021 26.7798C33.4603 26.2969 32.7803 25.6207 32.2622 24.7514C31.7604 23.8661 31.5094 22.8356 31.5094 21.6605C31.5094 19.9058 32.0033 18.5052 32.9907 17.4588C33.9784 16.3963 35.3141 15.8651 36.9976 15.8651C37.9368 15.8651 38.7947 16.0985 39.5718 16.5653C40.3489 17.0161 40.8752 17.5634 41.1503 18.2074L41.0288 16.3239V9.49005H43.603V27.2386H41.1017L41.0531 25.2827C40.778 25.8622 40.276 26.3774 39.5475 26.8281C38.819 27.2628 38.0015 27.4801 37.0948 27.4801ZM37.5319 25.2827C38.4547 25.2827 39.2318 24.9687 39.8632 24.3409C40.4946 23.697 40.8103 22.8598 40.8103 21.8295V21.6605C40.8103 20.9683 40.6646 20.3484 40.3732 19.8011C40.0817 19.2538 39.6852 18.8272 39.1832 18.5213C38.6814 18.2154 38.131 18.0625 37.5319 18.0625C36.4958 18.0625 35.6945 18.4006 35.1278 19.0767C34.5613 19.7368 34.2778 20.598 34.2778 21.6605C34.2778 22.739 34.5531 23.6165 35.1035 24.2926C35.6702 24.9527 36.4797 25.2827 37.5319 25.2827ZM52.2789 27.4801C51.1293 27.4801 50.1094 27.2226 49.219 26.7074C48.3285 26.1922 47.6406 25.4919 47.1549 24.6065C46.6692 23.7212 46.4264 22.739 46.4264 21.6605C46.4264 20.598 46.661 19.624 47.1306 18.7386C47.6163 17.8532 48.3042 17.1529 49.1948 16.6378C50.0851 16.1226 51.1132 15.8651 52.2789 15.8651C53.4445 15.8651 54.4644 16.1226 55.3387 16.6378C56.229 17.1529 56.909 17.8532 57.3786 18.7386C57.8642 19.624 58.1071 20.598 58.1071 21.6605C58.1071 22.739 57.8642 23.7212 57.3786 24.6065C56.8929 25.4919 56.2047 26.1922 55.3144 26.7074C54.4402 27.2226 53.4282 27.4801 52.2789 27.4801ZM52.3517 25.3551C53.2906 25.3551 54.0273 25.0089 54.5616 24.3168C55.112 23.6246 55.3872 22.7553 55.3872 21.7088C55.3872 20.6623 55.0958 19.7851 54.513 19.0767C53.9302 18.3523 53.1611 17.99 52.206 17.99C51.2832 17.99 50.5384 18.3442 49.9719 19.0525C49.4213 19.7609 49.1462 20.6463 49.1462 21.7088C49.1462 22.739 49.4456 23.6084 50.0447 24.3168C50.6437 25.0089 51.4126 25.3551 52.3517 25.3551Z" fill="black"/>
<path d="M64.7449 27.4801C63.9678 27.4801 63.1582 27.3835 62.3165 27.1903C61.4908 26.9811 60.8998 26.7396 60.5437 26.4659L61.4179 24.4133C62.3893 25.0895 63.4982 25.4276 64.7449 25.4276C65.9913 25.4276 66.6148 25.0653 66.6148 24.3409C66.6148 24.0189 66.4852 23.7695 66.2262 23.5923C65.9671 23.4152 65.5057 23.206 64.842 22.9645L63.9192 22.6264C62.9478 22.2401 62.1787 21.7812 61.6122 21.25C61.0455 20.7027 60.7623 19.9862 60.7623 19.1008C60.7623 18.0866 61.1588 17.2978 61.9522 16.7344C62.7615 16.1548 63.8382 15.8651 65.182 15.8651C65.8456 15.8651 66.4933 15.9375 67.1247 16.0824C67.7723 16.2273 68.2661 16.4124 68.6061 16.6378L67.659 18.7145C67.4484 18.5052 67.1084 18.3281 66.6391 18.1832C66.1856 18.0223 65.6756 17.9418 65.1091 17.9418C63.9596 17.9418 63.385 18.2879 63.385 18.9801C63.385 19.3665 63.5386 19.6644 63.8464 19.8736C64.1539 20.0668 64.6557 20.2841 65.352 20.5256C65.4167 20.5416 65.6677 20.6303 66.1048 20.7912C67.1409 21.1936 67.9098 21.6524 68.4118 22.1676C68.9136 22.6828 69.1646 23.3427 69.1646 24.1477C69.1646 25.2425 68.7436 26.0714 67.9018 26.6349C67.0762 27.1985 66.0238 27.4801 64.7449 27.4801ZM77.0848 27.4801C75.9355 27.4801 74.9155 27.2226 74.025 26.7074C73.1346 26.1922 72.4465 25.4919 71.9608 24.6065C71.4751 23.7212 71.2323 22.739 71.2323 21.6605C71.2323 20.598 71.4672 19.624 71.9365 18.7386C72.4222 17.8532 73.1103 17.1529 74.0007 16.6378C74.8912 16.1226 75.9191 15.8651 77.0848 15.8651C78.2504 15.8651 79.2704 16.1226 80.1446 16.6378C81.0352 17.1529 81.7151 17.8532 82.1845 18.7386C82.6702 19.624 82.913 20.598 82.913 21.6605C82.913 22.739 82.6702 23.7212 82.1845 24.6065C81.6988 25.4919 81.0109 26.1922 80.1203 26.7074C79.2461 27.2226 78.2343 27.4801 77.0848 27.4801ZM77.1576 25.3551C78.0968 25.3551 78.8332 25.0089 79.3675 24.3168C79.9181 23.6246 80.1932 22.7553 80.1932 21.7088C80.1932 20.6623 79.9018 19.7851 79.3189 19.0767C78.7361 18.3523 77.9672 17.9901 77.0119 17.9901C76.0891 17.9901 75.3445 18.3442 74.7778 19.0526C74.2274 19.7609 73.9521 20.6463 73.9521 21.7088C73.9521 22.739 74.2517 23.6084 74.8506 24.3168C75.4498 25.0089 76.2187 25.3551 77.1576 25.3551ZM89.5508 27.4801C88.7737 27.4801 87.9643 27.3835 87.1223 27.1903C86.2967 26.9811 85.7059 26.7396 85.3496 26.4659L86.2238 24.4133C87.1952 25.0895 88.3043 25.4276 89.5508 25.4276C90.7974 25.4276 91.4207 25.0653 91.4207 24.3409C91.4207 24.0189 91.2913 23.7695 91.0321 23.5923C90.7731 23.4152 90.3117 23.206 89.6479 22.9645L88.7251 22.6264C87.7537 22.2401 86.9848 21.7812 86.4181 21.25C85.8516 20.7027 85.5681 19.9862 85.5681 19.1008C85.5681 18.0866 85.9649 17.2978 86.7581 16.7344C87.5676 16.1548 88.6443 15.8651 89.9879 15.8651C90.6517 15.8651 91.2992 15.9375 91.9306 16.0824C92.5783 16.2273 93.072 16.4124 93.412 16.6378L92.4649 18.7145C92.2545 18.5052 91.9145 18.3281 91.4449 18.1832C90.9917 18.0223 90.4817 17.9418 89.915 17.9418C88.7657 17.9418 88.1908 18.2879 88.1908 18.9801C88.1908 19.3665 88.3447 19.6644 88.6522 19.8736C88.96 20.0668 89.4618 20.2841 90.1579 20.5256C90.2228 20.5416 90.4736 20.6303 90.9107 20.7912C91.9469 21.1936 92.7159 21.6524 93.2177 22.1676C93.7197 22.6828 93.9705 23.3427 93.9705 24.1477C93.9705 25.2425 93.5497 26.0714 92.7077 26.6349C91.8821 27.1985 90.8299 27.4801 89.5508 27.4801Z" fill="#FF5977"/>
<path d="M5.58539 26.9006C4.04738 26.9006 2.98697 26.4499 2.40415 25.5483C1.83751 24.6467 1.5542 23.391 1.5542 21.7813V15.5753H4.1769V21.1293C4.1769 22.0469 4.22547 22.7632 4.3226 23.2784C4.43592 23.7774 4.6464 24.1477 4.954 24.3892C5.27779 24.6307 5.75538 24.7514 6.38677 24.7514C6.84007 24.7514 7.27718 24.6226 7.69812 24.3651C8.11905 24.1076 8.45903 23.7614 8.71806 23.3267C8.99328 22.876 9.13089 22.3849 9.13089 21.8537V15.5753H11.7293V26.6591H9.59229L9.30088 25.0412C8.89615 25.669 8.38618 26.136 7.77097 26.4418C7.17196 26.7476 6.44344 26.9006 5.58539 26.9006Z" fill="black"/>
<path d="M23.9248 19.0423C23.9248 15.7491 21.3023 14.1871 18.6797 14.4763C18.0969 12.548 15.6687 12.8373 15.3773 14.4763C15.1562 15.7199 16.1543 16.4391 17.1256 16.4391L16.3486 17.8854L14.0174 19.0423C13.4058 19.346 13.5163 20.0677 14.0174 20.2201V26.3699C14.0174 26.6591 14.5031 26.6591 14.5031 26.3699V20.1993L17.5141 19.1388L18.6797 17.4033C19.0682 16.7284 19.8452 17.114 19.4567 17.7889L18.5826 18.9459V24.2488H19.0682L19.3596 26.6591H21.108L21.3994 24.2488H23.9248V19.0423Z" fill="black"/>
<path d="M70.5215 27.2386C70.9507 27.2386 71.2986 26.8927 71.2986 26.4659C71.2986 26.0391 70.9507 25.6932 70.5215 25.6932C70.0923 25.6932 69.7444 26.0391 69.7444 26.4659C69.7444 26.8927 70.0923 27.2386 70.5215 27.2386Z" fill="#FF5977"/>
<path d="M83.3435 27.2386C83.7727 27.2386 84.1206 26.8927 84.1206 26.4659C84.1206 26.0391 83.7727 25.6932 83.3435 25.6932C82.9143 25.6932 82.5664 26.0391 82.5664 26.4659C82.5664 26.8927 82.9143 27.2386 83.3435 27.2386Z" fill="#FF5977"/>
</svg>
