<svg width="162" height="118" viewBox="0 0 162 118" fill="none" xmlns="http://www.w3.org/2000/svg">
<path d="M129.957 17.0678C104.685 -6.00005 50.771 -6.00005 32.2381 18.9902C28.8684 30.5241 25.3266 33.759 17.0748 38.2134C16.0665 40.1409 15.3205 41.9902 14.6941 43.9804C13.6917 47.1653 12.9954 50.7108 12.0204 55.5144C12.0204 55.5144 12.0204 61.3724 12.0204 65.126C20.4444 134.33 135.011 136.252 150.175 67.0483V55.5144C150.185 51.2084 150.09 47.9529 149.496 45.475C148.478 41.2295 145.995 39.2666 140.066 38.2134C134.995 32.9879 131.732 26.9773 129.957 17.0678Z" fill="#FFF1E8"/>
<path d="M12.0204 65.126V55.5144C12.9954 50.7108 13.6917 47.1653 14.6941 43.9804C10.6098 42.042 6.49463 43.3613 3.66242 46.1133C-1.93157 51.5488 -2.52038 62.5736 12.0204 65.126Z" fill="#FFF1E8"/>
<path d="M150.175 55.5144V67.0483C163.343 64.0435 165.19 48.1216 157.325 44.9806C155.331 44.1843 152.712 44.2095 149.496 45.475C150.09 47.9529 150.185 51.2084 150.175 55.5144Z" fill="#FFF1E8"/>
<ellipse cx="58.8661" cy="51.7459" rx="15.5407" ry="16.9262" fill="white"/>
<ellipse cx="103.134" cy="51.7459" rx="15.5407" ry="16.9262" fill="white"/>
<path d="M74.407 53.1967C79.3134 49.3688 82.1667 49.2872 87.593 53.1967" stroke="#1B3882" stroke-width="0.5" stroke-linecap="round"/>
<path d="M114.979 82.4893C101.602 96.3065 61.4725 96.3071 48.0958 82.4893C44.2741 78.5416 51.9452 71.2362 61.4725 68.6721H101.602C111.635 68.6721 118.323 79.035 114.979 82.4893Z" fill="#D2D2D2"/>
<path d="M139.866 38.6885C134.134 31.507 130.25 26.3888 129.506 16.9262C135.173 10.0433 139.909 7.84051 146.459 11.1229C150.921 13.3589 156.364 23.5346 157.291 29.4247C157.997 33.9136 158.57 39.6196 158.233 45.459C154.936 44.4918 154.465 43.5246 149.285 45.459C146.459 40.1394 145.047 39.6557 139.866 38.6885Z" fill="#D2D2D2"/>
<path d="M24.2159 36.0305C29.4792 28.1235 34.7272 24.9553 34.3779 15.4754C27.4819 9.43565 20.435 5.46649 13.8249 9.62221C9.32208 12.453 4.73111 23.2872 4.45284 29.252C4.24077 33.7978 4.31845 39.5313 5.38656 45.2715C8.79622 43.8587 9.18293 42.8353 14.9592 44.0382C17.338 38.377 18.791 37.703 24.2159 36.0305Z" fill="#D2D2D2"/>
<path d="M64.8 29.5464C76.9593 21.665 83.9364 22.0299 96.577 29.5464M70.4077 20.9422C77.1782 17.9084 80.8065 17.3102 86.6077 20.9422" stroke="#F2D7CE" stroke-linecap="round" stroke-linejoin="round"/>
<path d="M103.431 21.5104C102.808 22.7396 102.702 24.6735 100.938 24.5833C99.5619 24.5833 98.446 23.2075 98.446 21.5104C98.446 19.8133 99.5619 18.4375 100.938 18.4375C102.315 18.4375 104.054 20.2813 103.431 21.5104Z" fill="#F2D7CE"/>
<path d="M53.5847 53.6224C55.4539 49.3203 60.4386 49.3203 62.3078 53.6224" stroke="black" stroke-linecap="round"/>
<path d="M98.446 53.6224C100.315 49.3203 105.3 49.3203 107.169 53.6224" stroke="black" stroke-linecap="round"/>
</svg>
